<?xml version="1.0" standalone="no"?>
<!DOCTYPE svg PUBLIC "-//W3C//DTD SVG 20010904//EN"
 "http://www.w3.org/TR/2001/REC-SVG-20010904/DTD/svg10.dtd">
<svg version="1.0" xmlns="http://www.w3.org/2000/svg"
 width="770.000000pt" height="770.000000pt" viewBox="0 0 770.000000 770.000000"
 preserveAspectRatio="xMidYMid meet">

<g transform="translate(0.000000,770.000000) scale(0.100000,-0.100000)"
fill="#000000" stroke="none">
<path d="M3580 7693 c-572 -53 -995 -170 -1451 -398 -380 -189 -688 -413
-1000 -724 -622 -622 -986 -1369 -1105 -2263 -21 -158 -29 -580 -15 -753 96
-1157 675 -2178 1616 -2850 511 -364 1101 -592 1765 -682 169 -23 713 -26 880
-5 760 94 1409 364 1990 826 161 128 468 435 596 596 462 581 732 1230 826
1990 21 167 18 711 -5 880 -117 869 -470 1608 -1057 2213 -80 82 -190 189
-245 236 -625 540 -1385 860 -2210 930 -109 10 -500 13 -585 4z m1264 -915
c19 -208 -64 -499 -205 -718 -70 -109 -229 -273 -328 -340 -88 -59 -201 -113
-300 -144 -86 -27 -276 -54 -289 -42 -16 17 -14 232 3 317 83 406 391 770 780
920 99 39 248 78 296 79 l37 0 6 -72z m-1744 -1233 c41 -9 181 -52 310 -95
292 -98 324 -104 485 -104 150 1 212 14 429 94 267 98 413 130 602 130 357 0
700 -157 973 -446 50 -53 91 -100 91 -106 0 -5 -14 -17 -31 -26 -58 -31 -186
-130 -241 -185 -148 -148 -254 -334 -310 -544 -21 -79 -23 -109 -22 -293 0
-189 2 -213 27 -303 55 -204 148 -371 290 -523 113 -120 195 -181 335 -252
103 -51 113 -58 107 -79 -3 -13 -34 -83 -70 -156 -207 -428 -513 -864 -745
-1062 -100 -86 -134 -109 -223 -151 -115 -54 -183 -67 -317 -61 -129 5 -175
19 -368 106 -211 96 -416 132 -627 112 -149 -15 -238 -39 -435 -121 -200 -83
-264 -100 -395 -100 -312 0 -591 206 -901 665 -341 505 -524 974 -594 1521
-24 189 -27 486 -5 649 55 416 218 732 514 998 198 178 430 295 679 342 98 18
336 13 442 -10z"/>
</g>
</svg>
